<?xml version="1.0" encoding="UTF-8"?><svg id="Layer_1" xmlns="http://www.w3.org/2000/svg" viewBox="0 0 1080 1080"><path d="m879.68,736.11l-113.23-65.36v-.02l-113.23-65.36-226.46-130.76-113.23-65.36v-.02l-113.23-65.36-113.23-65.38v130.76h.02l113.21,65.36,113.23,65.38v130.76l-113.23,65.36-113.23-65.38v130.76l113.21,65.38h.02l113.21,65.38h.02l113.21,65.36h.02v.02l113.23,65.38,113.23-65.38v-.02h.02l113.21-65.36h.02l113.21-65.38h.02l113.21-65.38-113.23-65.38Zm-226.46,130.73v.02l-113.23,65.36-113.23-65.36v-130.76l113.23-65.38,226.46,130.76-113.23,65.36Z" style="fill:#41b783;"/><polygon points="653.23 736.11 653.23 866.84 540 801.49 653.23 736.11" style="fill:#36495e;"/><path d="m879.68,343.89l113.23,65.38v-130.76l-113.21-65.38h-.02l-113.21-65.38h-.02l-113.21-65.36h-.02v-.02l-113.23-65.38-113.23,65.38v.02h-.02l-113.21,65.36h-.02l-113.21,65.38h-.02l-113.21,65.38,113.23,65.38,113.23,65.36v.02l113.23,65.36,226.46,130.76,113.23,65.36v.02l113.23,65.36,113.23,65.38v-130.76l-113.23-65.36-113.23-65.38v-130.76l113.23-65.36Zm-566.14-65.38l113.23-65.36v-.02l113.23-65.36,113.23,65.36v130.76l-113.23,65.38-226.46-130.76Z" style="fill:#36495e;"/><polygon points="540 278.51 426.77 343.89 426.77 213.16 540 278.51" style="fill:#41b783;"/></svg>