<?xml version="1.0" standalone="no"?>
<!DOCTYPE svg PUBLIC "-//W3C//DTD SVG 20010904//EN"
 "http://www.w3.org/TR/2001/REC-SVG-20010904/DTD/svg10.dtd">
<svg version="1.0" xmlns="http://www.w3.org/2000/svg"
 width="700.000000pt" height="700.000000pt" viewBox="0 0 700.000000 700.000000"
 preserveAspectRatio="xMidYMid meet">
<metadata>
Created by potrace 1.14, written by Peter Selinger 2001-2017
</metadata>
<g transform="translate(0.000000,700.000000) scale(0.100000,-0.100000)"
fill="#000000" stroke="none">
<path d="M3315 6783 c-99 -58 -198 -115 -220 -127 -22 -13 -128 -74 -235 -136
-107 -62 -211 -122 -230 -132 -19 -11 -134 -78 -255 -148 -214 -124 -514 -297
-585 -338 -141 -80 -572 -329 -600 -347 -19 -12 -42 -24 -50 -28 -8 -3 -141
-80 -295 -169 l-280 -163 0 -424 0 -423 120 -70 c66 -39 145 -84 175 -101 30
-17 71 -40 90 -52 19 -12 42 -25 50 -28 8 -4 29 -15 45 -26 17 -10 107 -62
200 -116 94 -54 187 -109 207 -122 21 -12 39 -23 41 -23 2 0 71 -39 153 -86
82 -48 200 -116 262 -152 62 -35 114 -68 117 -72 4 -6 7 -346 5 -726 l0 -122
-67 -40 c-38 -22 -84 -49 -103 -59 -19 -11 -109 -63 -200 -115 -91 -53 -181
-105 -200 -115 -19 -11 -63 -37 -98 -57 l-63 -37 -102 59 c-56 32 -210 121
-342 197 -132 76 -250 145 -262 153 -13 8 -24 10 -24 6 -1 -5 -2 -195 -3 -422
-1 -267 2 -416 9 -422 5 -4 28 -18 50 -30 22 -12 167 -96 323 -186 155 -90
285 -164 288 -164 2 0 17 -9 32 -19 15 -10 176 -104 357 -209 182 -104 346
-199 365 -210 19 -12 46 -27 60 -35 14 -7 187 -107 385 -222 198 -114 374
-215 390 -225 60 -34 291 -168 325 -189 19 -11 42 -24 50 -28 8 -4 65 -36 125
-71 61 -36 125 -73 143 -84 l33 -18 92 53 c51 30 182 106 292 170 110 63 216
124 235 136 19 11 42 24 50 28 8 4 59 33 113 65 54 32 103 58 108 58 5 0 9 5
9 10 0 6 5 10 11 10 6 0 49 23 97 51 48 29 177 104 287 167 110 63 227 131
260 150 33 19 76 43 95 54 143 82 907 524 930 538 8 5 49 28 90 52 41 23 83
47 92 53 9 5 35 20 57 32 22 12 57 33 78 46 l38 24 0 422 0 422 -45 28 c-25
15 -70 41 -100 58 -30 17 -152 87 -270 155 -289 168 -787 456 -830 481 -19 10
-66 38 -105 60 -38 22 -81 46 -94 53 l-24 13 1 421 c0 232 4 426 9 430 4 4
100 61 213 126 113 65 274 157 359 206 l153 89 207 -119 c113 -66 222 -129
241 -140 19 -10 76 -43 125 -72 50 -29 106 -60 125 -70 l35 -18 0 419 c0 265
-4 422 -10 427 -10 10 -277 166 -385 225 -30 17 -71 40 -90 52 -19 12 -71 42
-115 67 -124 70 -136 77 -365 210 -368 214 -396 230 -735 425 -181 105 -346
200 -365 212 -19 11 -42 24 -50 28 -8 4 -73 41 -146 84 -72 42 -151 88 -175
102 -24 13 -146 83 -271 156 -125 72 -229 131 -230 130 -2 0 -84 -48 -183
-106z m354 -838 c90 -52 166 -95 168 -95 2 0 20 -11 41 -24 20 -14 60 -37 87
-53 245 -137 263 -149 267 -168 8 -51 1 -839 -8 -842 -9 -3 -595 -340 -691
-397 l-31 -19 -144 83 c-79 45 -158 91 -176 101 -99 57 -378 219 -412 239 -76
46 -153 90 -157 90 -3 0 -34 18 -69 40 -35 22 -66 40 -68 40 -2 0 -50 27 -106
60 -56 33 -103 60 -106 60 -2 0 -28 16 -58 35 -30 19 -57 35 -60 35 -16 0
-106 64 -99 70 14 14 375 220 384 220 5 0 9 4 9 8 0 4 12 13 28 19 15 7 34 17
42 22 16 11 158 93 227 132 82 47 595 343 692 401 36 21 67 38 70 38 4 0 80
-43 170 -95z m-56 -3357 c61 -35 126 -73 146 -85 20 -13 43 -26 51 -30 8 -4
43 -24 78 -45 34 -21 64 -38 66 -38 2 0 92 -52 201 -115 108 -63 198 -115 200
-115 1 0 44 -25 94 -55 51 -30 94 -55 97 -55 3 0 30 -16 60 -35 30 -19 56 -35
58 -35 2 0 50 -27 105 -60 56 -33 104 -60 106 -60 3 0 24 -12 46 -27 l41 -27
-24 -18 c-13 -9 -27 -18 -31 -18 -5 0 -21 -8 -35 -19 -15 -10 -49 -31 -77 -46
-27 -15 -90 -51 -140 -80 -49 -29 -268 -155 -485 -281 -217 -125 -447 -257
-510 -294 -173 -101 -155 -95 -203 -67 -23 14 -60 35 -82 47 -22 12 -92 53
-155 90 -63 36 -191 111 -285 165 l-170 98 1 420 0 419 25 18 c26 19 247 148
319 187 25 14 122 69 215 124 94 54 172 99 174 99 2 0 54 -28 114 -62z"/>
<path d="M2768 5603 c-7 -14 -2 -812 4 -819 4 -3 82 38 175 91 92 54 252 145
355 204 103 58 186 110 184 115 -2 8 -286 178 -456 273 -25 14 -91 52 -147 84
-108 62 -110 63 -115 52z"/>
<path d="M3900 2037 c-173 -101 -334 -194 -357 -208 l-43 -25 87 -50 c124 -70
152 -86 406 -233 126 -73 231 -130 235 -127 10 11 8 826 -3 826 -5 -1 -152
-83 -325 -183z"/>
</g>
</svg>
